<svg width="500" height="500" viewBox="0 0 500 500" fill="none" xmlns="http://www.w3.org/2000/svg">
<g clip-path="url(#clip0_253_1296)">
<path d="M231.613 144.744C216.226 88.926 146.888 70.945 107.15 112.661C106.579 113.26 106.009 113.869 105.439 114.488C48.4703 176.416 75.3823 329.026 194.276 367.706C313.17 406.386 436.836 335.753 443.783 272.612C450.73 209.471 395.878 189.631 310.755 207.287C262.663 217.261 241.192 179.492 231.613 144.744Z" fill="#CCE1F7"/>
<path d="M351.57 157.596C335.663 160.186 331.254 174.279 343.536 184.277C347.596 187.582 353.393 190.327 361.653 191.697C393.116 196.917 409.812 182.996 397.2 164.948C389.416 153.809 367.334 155.029 351.57 157.596Z" fill="#CCE1F7"/>
<path d="M62.4281 251.787C52.5391 239.061 38.0551 241.938 35.1571 257.508C34.1991 262.654 34.5641 269.059 37.3161 276.966C47.7961 307.088 68.0111 315.082 77.8191 295.369C83.8721 283.201 72.2291 264.399 62.4281 251.787Z" fill="#CCE1F7"/>
<path d="M279.153 129.446L280.806 121.02L272.911 119.471C272.906 117.396 272.552 115.316 271.866 113.304L278.371 108.934L273.582 101.806L267.356 105.989C265.503 104.107 263.324 102.659 260.965 101.689L262.516 93.793L254.09 92.14L252.493 100.278C250.764 100.374 249.043 100.703 247.366 101.276L242.996 94.77L235.868 99.559L240.051 105.785C238.169 107.638 236.721 109.817 235.751 112.176L228.849 110.82L227.194 119.246L234.339 120.648C234.462 122.853 234.955 125.052 235.856 127.15L229.629 131.333L234.418 138.461L240.924 134.091C242.791 135.718 244.923 136.939 247.201 137.738L245.64 145.681L254.066 147.334L255.757 138.723C257.609 138.519 259.445 138.043 261.211 137.284L265.394 143.512L272.522 138.723L268.152 132.218C269.315 130.883 270.271 129.413 271.015 127.848L279.153 129.446ZM257.99 126.071C254.387 128.491 249.488 127.53 247.068 123.927C244.648 120.324 245.609 115.425 249.212 113.005C252.815 110.585 257.714 111.546 260.134 115.149C262.554 118.752 261.593 123.651 257.99 126.071Z" fill="#CCE1F7"/>
<path d="M231.533 90.714L232.436 86.109L228.122 85.262C228.119 84.128 227.926 82.991 227.551 81.891L231.106 79.503L228.489 75.608L225.087 77.894C224.074 76.865 222.883 76.074 221.594 75.544L222.442 71.229L217.837 70.326L216.964 74.773C216.019 74.826 215.079 75.006 214.162 75.319L211.774 71.763L207.879 74.38L210.165 77.783C209.136 78.796 208.345 79.986 207.815 81.276L204.043 80.535L203.139 85.14L207.044 85.906C207.111 87.111 207.381 88.312 207.873 89.459L204.47 91.745L207.087 95.64L210.643 93.252C211.663 94.141 212.828 94.808 214.073 95.245L213.22 99.586L217.825 100.489L218.749 95.783C219.761 95.671 220.765 95.412 221.73 94.997L224.016 98.4L227.911 95.783L225.523 92.228C226.159 91.498 226.681 90.695 227.087 89.84L231.533 90.714ZM219.968 88.87C217.999 90.193 215.322 89.667 213.999 87.698C212.676 85.729 213.202 83.052 215.171 81.729C217.14 80.407 219.817 80.932 221.14 82.901C222.462 84.87 221.937 87.547 219.968 88.87Z" fill="#CCE1F7"/>
<path d="M463.098 114.24L464.001 109.635L459.687 108.788C459.684 107.654 459.491 106.517 459.116 105.417L462.671 103.029L460.054 99.134L456.652 101.42C455.639 100.391 454.448 99.6 453.159 99.07L454.007 94.755L449.402 93.852L448.529 98.299C447.584 98.352 446.644 98.532 445.727 98.845L443.339 95.289L439.444 97.906L441.73 101.309C440.702 102.322 439.91 103.512 439.38 104.802L435.608 104.061L434.704 108.666L438.609 109.432C438.676 110.637 438.946 111.839 439.438 112.985L436.035 115.271L438.652 119.166L442.208 116.778C443.228 117.667 444.393 118.334 445.638 118.771L444.785 123.112L449.39 124.015L450.314 119.309C451.326 119.197 452.33 118.938 453.295 118.523L455.581 121.926L459.476 119.309L457.088 115.754C457.724 115.024 458.246 114.221 458.653 113.366L463.098 114.24ZM451.533 112.396C449.564 113.718 446.887 113.193 445.564 111.224C444.241 109.255 444.767 106.578 446.736 105.255C448.705 103.932 451.382 104.458 452.705 106.427C454.027 108.396 453.502 111.074 451.533 112.396Z" fill="#CCE1F7"/>
<path d="M69.4253 171.462L70.3283 166.857L66.0133 166.01C66.0103 164.876 65.8173 163.739 65.4423 162.64L68.9973 160.252L66.3803 156.357L62.9783 158.643C61.9653 157.614 60.7743 156.823 59.4853 156.293L60.3323 151.978L55.7273 151.075L54.8543 155.522C53.9093 155.575 52.9693 155.755 52.0523 156.068L49.6643 152.512L45.7693 155.129L48.0553 158.532C47.0263 159.545 46.2353 160.735 45.7053 162.025L41.9333 161.284L41.0293 165.889L44.9343 166.655C45.0013 167.86 45.2713 169.061 45.7633 170.208L42.3603 172.494L44.9773 176.389L48.5333 174.001C49.5533 174.89 50.7183 175.557 51.9633 175.994L51.1103 180.335L55.7153 181.238L56.6393 176.532C57.6513 176.42 58.6553 176.161 59.6203 175.746L61.9063 179.149L65.8013 176.532L63.4133 172.977C64.0493 172.247 64.5713 171.444 64.9773 170.589L69.4253 171.462ZM57.8603 169.617C55.8913 170.939 53.2143 170.414 51.8913 168.445C50.5683 166.476 51.0943 163.799 53.0633 162.476C55.0323 161.153 57.7093 161.679 59.0323 163.648C60.3543 165.617 59.8293 168.295 57.8603 169.617Z" fill="#CCE1F7"/>
<path d="M249.68 400.451C173.395 400.451 106.704 397.124 70.5112 392.16C66.7052 391.638 65.5512 397.147 69.2452 398.201C93.9412 405.247 128.911 405.737 151.251 408.143C189.761 412.291 245.751 411.143 249.681 424.563C253.608 437.986 254.001 452.191 214.751 450.191C172.162 448.021 179.251 424.563 179.251 424.563C139.751 425.688 45.7512 416.441 35.3532 400.451C25.0732 384.643 43.9112 380.986 44.3392 380.906C44.3412 380.905 44.3432 380.905 44.3452 380.904C60.2552 372.877 146.128 366.744 249.68 366.744C364.542 366.744 457.657 374.289 457.657 383.596C457.657 392.906 364.542 400.451 249.68 400.451Z" fill="#CCE1F7"/>
<path d="M107.153 351.603C97.9951 342.372 77.9901 320.736 65.3871 296.173C47.3011 260.921 29.1651 264.072 25.6061 276.533C16.4021 308.762 70.6121 343.789 93.0901 356.727L107.153 351.603Z" fill="#3B73AB"/>
<path d="M102.203 353.406C86.4204 341.57 73.0774 327.568 64.0104 317.002C51.8854 302.874 44.5824 291.674 44.5084 291.56C44.2474 291.158 43.7084 291.043 43.3054 291.307C42.9014 291.567 42.7864 292.106 43.0494 292.509C43.1204 292.622 50.4764 303.9 62.6694 318.114C71.6254 328.555 84.7334 342.33 100.254 354.117L102.203 353.406Z" fill="#00528A"/>
<path d="M104.885 339.197C100.643 330.732 92.6001 312.997 89.6181 294.925C85.1621 267.923 72.5691 266.168 67.5991 273.613C53.9481 294.06 86.6621 331.672 97.0971 342.806L104.885 339.197Z" fill="#00528A"/>
<path d="M101.92 340.57C93.9533 329.39 88.0763 317.258 84.3163 308.333C79.3233 296.482 76.8833 287.574 76.8593 287.484C76.7723 287.165 76.4423 286.975 76.1213 287.063C75.8003 287.149 75.6113 287.479 75.6993 287.8C75.7223 287.889 78.1803 296.859 83.1993 308.781C86.9633 317.722 92.8423 329.861 100.81 341.084L101.92 340.57Z" fill="#01305A"/>
<path d="M405.068 214.551C413.508 204.659 431.834 181.584 442.559 156.144C457.95 119.635 476.272 121.417 480.754 133.576C492.349 165.024 440.919 204.018 419.475 218.605L405.068 214.551Z" fill="#3B73AB"/>
<path d="M410.141 215.978C424.992 202.992 437.247 188.028 445.496 176.811C456.527 161.813 462.97 150.097 463.035 149.978C463.265 149.558 463.794 149.403 464.215 149.635C464.637 149.864 464.792 150.393 464.56 150.814C464.498 150.932 458.008 162.73 446.915 177.818C438.767 188.901 426.729 203.621 412.136 216.538L410.141 215.978Z" fill="#00528A"/>
<path d="M406.398 202.01C409.993 193.25 416.683 174.962 418.301 156.718C420.719 129.458 433.145 126.763 438.659 133.814C453.805 153.179 424.004 193.14 414.434 205.025L406.398 202.01Z" fill="#00528A"/>
<path d="M409.457 203.157C416.563 191.411 421.514 178.872 424.593 169.69C428.683 157.498 430.448 148.432 430.465 148.341C430.528 148.016 430.843 147.803 431.169 147.866C431.495 147.927 431.709 148.243 431.645 148.569C431.629 148.66 429.851 157.789 425.739 170.053C422.656 179.251 417.705 191.797 410.6 203.586L409.457 203.157Z" fill="#01305A"/>
<path d="M148.715 111.193C150.289 96.454 149.063 82.209 141.729 85.722C134.387 89.239 136.96 113.713 146.943 129.856L149.026 136.159C141.956 124.267 127.85 114.193 122.061 117.958C116.308 121.7 126.306 127.554 136.331 131.377C143.962 134.287 148.29 137.941 150.3 140.012L160.136 169.784C148.887 150.985 126.605 135.106 117.444 141.064C108.315 147.002 124.18 156.29 140.086 162.356C152.106 166.94 158.966 172.691 162.186 175.988L164.147 181.924C165.23 181.745 166.311 181.56 167.391 181.369L155.689 145.949C156.475 142.908 158.035 138.745 161.125 133.904C166.898 124.861 171.442 114.203 164.592 114.625C158.647 114.991 153.866 127.309 153.565 139.519L149.518 127.27C148.91 123.267 148.035 117.555 148.715 111.193Z" fill="#00528A"/>
<path d="M454.469 286.144C458.448 271.865 464.846 259.079 470.366 265.052C475.891 271.031 464.464 292.826 449.226 304.143L444.963 309.232C455.924 300.791 472.753 296.636 476.743 302.273C480.708 307.875 469.255 309.623 458.527 309.475C450.361 309.363 444.989 311.161 442.357 312.342L422.224 336.379C439.619 323.061 466.189 316.531 472.503 325.45C478.795 334.338 460.621 337.113 443.6 336.878C430.737 336.701 422.238 339.512 418.029 341.387L414.015 346.18C413.075 345.614 412.138 345.043 411.205 344.466L435.158 315.869C435.55 312.753 435.638 308.308 434.553 302.668C432.526 292.133 432.239 280.55 438.449 283.471C443.839 286.006 443.734 299.218 439.507 310.677L447.791 300.787C449.83 297.293 452.752 292.307 454.469 286.144Z" fill="#3B73AB"/>
<path d="M120.8 263.796H137.26C128.366 262.326 106.315 252.859 104.349 233.877C101.859 209.834 93.2969 210.134 78.8699 207.619C64.4429 205.104 60.4699 209.21 51.3099 190.544C42.1499 171.878 21.7139 169.525 21.7139 169.525C21.7139 169.525 40.3399 189.848 36.7759 205.294C33.2109 220.739 45.5629 226.908 55.4539 228.849C65.3449 230.79 62.9739 244.083 66.7329 252.621C68.4479 256.517 75.4689 260.556 82.5969 263.796H120.8Z" fill="#00528A"/>
<path d="M85.1464 240.128C85.8654 247.328 90.0054 255.892 96.2214 263.033C96.4404 263.284 96.6674 263.539 96.8994 263.796H98.7724C98.2364 263.232 97.7294 262.675 97.2564 262.132C91.3094 255.301 87.1914 246.816 86.5084 239.991C85.4234 229.125 77.0274 221.72 59.2804 215.982C48.9794 212.653 45.7264 200.078 45.6964 199.95C45.6044 199.584 45.2324 199.359 44.8654 199.451C44.4964 199.543 44.2724 199.915 44.3644 200.281C44.5004 200.828 47.8244 213.721 58.8574 217.288C76.0134 222.834 84.1224 229.879 85.1464 240.128Z" fill="#01305A"/>
<path d="M112.333 263.796H146.935C146.945 263.761 146.955 263.726 146.964 263.692C147.936 260.236 148.486 256.678 148.608 253.089C149.02 240.978 149.225 210.566 141.397 202.777C131.557 192.986 111.834 189.159 114.436 174.388C117.038 159.617 115.09 139.166 91.7389 135.843C68.3879 132.52 50.1489 95.779 50.1489 95.779C50.1489 95.779 42.4699 125.41 63.4779 148.122C84.4859 170.834 76.6579 174.153 72.4229 195.527C68.1879 216.901 63.1859 228.626 95.2299 244.959C103.921 249.39 109.221 256.209 112.333 263.796Z" fill="#3B73AB"/>
<path d="M94.5237 172.813C92.9847 200.522 98.7697 216.145 113.273 223.47C122.382 228.074 131.955 238.334 138.254 250.248C140.242 254.01 142.266 258.58 143.837 263.797H145.967C144.329 258.192 142.176 253.295 140.06 249.294C133.475 236.84 123.804 226.506 114.193 221.652C100.512 214.741 95.0747 199.712 96.5637 172.926C97.5207 155.699 81.4027 144.18 80.7157 143.698C80.2567 143.374 79.6187 143.486 79.2947 143.949C78.9707 144.408 79.0827 145.046 79.5427 145.37C79.7037 145.479 95.4187 156.73 94.5237 172.813Z" fill="#00528A"/>
<path d="M314.157 208.941H331.014L348.104 197.808C352.306 191.203 355.985 183.986 355.295 179.786C353.784 170.58 344.542 160.737 351.77 153.711C358.998 146.685 365.981 134.775 354.563 123.779C343.146 112.783 347.66 85.588 347.66 85.588C347.66 85.588 331.82 98.714 334.334 119.354C336.848 139.994 331.277 138.724 320.562 148.705C309.847 158.686 302.508 163.108 313.545 184.613C317.67 192.649 316.859 201.354 314.157 208.941Z" fill="#00528A"/>
<path d="M333.047 179.369C336.375 185.794 337.58 195.23 336.27 204.606C336.224 204.936 336.173 205.273 336.118 205.615L334.549 206.637C334.69 205.872 334.811 205.128 334.911 204.416C336.165 195.446 334.984 186.089 331.832 179.998C326.81 170.301 329.803 159.513 341.541 145.019C348.355 136.607 344.217 124.295 344.172 124.171C344.049 123.814 344.239 123.422 344.596 123.3C344.955 123.175 345.346 123.365 345.469 123.722C345.654 124.255 349.906 136.871 342.608 145.883C331.259 159.894 328.31 170.222 333.047 179.369Z" fill="#01305A"/>
<path d="M377.631 208.941C379.607 207.299 381.836 205.816 384.35 204.534C416.394 188.201 411.393 176.475 407.157 155.102C402.922 133.728 395.094 130.409 416.102 107.697C437.11 84.985 429.431 55.354 429.431 55.354C429.431 55.354 411.192 92.095 387.841 95.418C364.49 98.741 362.541 119.192 365.144 133.963C367.746 148.734 348.023 152.561 338.183 162.352C331.066 169.434 330.59 195.215 330.871 208.941H377.631Z" fill="#3B73AB"/>
<path d="M341.801 208.941C348.1 197.405 357.423 187.534 366.306 183.044C380.809 175.719 386.594 160.096 385.055 132.387C384.16 116.304 399.875 105.053 400.037 104.943C400.496 104.619 400.609 103.982 400.285 103.522C399.96 103.059 399.323 102.947 398.864 103.271C398.177 103.753 382.059 115.271 383.016 132.499C384.505 159.285 379.068 174.314 365.387 181.225C355.776 186.079 346.105 196.413 339.52 208.867C339.507 208.891 339.494 208.916 339.482 208.941H341.801Z" fill="#00528A"/>
<path d="M419.402 168.376V349.286C419.402 356.744 413.356 362.79 405.898 362.79H97.586C90.128 362.79 84.082 356.744 84.082 349.286V168.376C84.082 160.918 90.128 154.872 97.586 154.872H405.898C413.356 154.872 419.402 160.918 419.402 168.376Z" fill="#01305A"/>
<path d="M404.507 177.573V340.088C404.507 344.871 400.632 348.748 395.85 348.748H107.637C105.617 348.748 103.76 348.055 102.285 346.895C101.895 346.588 101.53 346.245 101.197 345.875C99.8146 344.345 98.9766 342.312 98.9766 340.088V177.573C98.9766 172.79 102.857 168.913 107.637 168.913H395.85C397.45 168.913 398.945 169.345 400.23 170.103C401.437 170.813 402.46 171.808 403.2 172.996C404.03 174.323 404.507 175.893 404.507 177.573Z" fill="white"/>
<path d="M203.846 290.728H192.036V305.966H162.956V290.728H116.86V271.68L154.576 217.075H185.307L151.782 267.489H163.846V253.901H192.037V267.489H203.847V290.728H203.846Z" fill="#9F62F2"/>
<path d="M208.034 261.521C208.034 232.06 224.797 215.043 248.289 215.043C271.782 215.043 288.544 232.059 288.544 261.521C288.544 290.982 271.782 307.999 248.289 307.999C224.797 307.999 208.034 290.982 208.034 261.521ZM258.448 261.521C258.448 244.378 254.131 239.044 248.289 239.044C242.448 239.044 238.13 244.378 238.13 261.521C238.13 278.664 242.448 283.998 248.289 283.998C254.131 283.998 258.448 278.664 258.448 261.521Z" fill="#9F62F2"/>
<path d="M382.002 290.728H370.192V305.966H341.112V290.728H295.015V271.68L332.73 217.075H363.461L329.936 267.489H342V253.901H370.191V267.489H382.001V290.728H382.002Z" fill="#9F62F2"/>
<path d="M450.725 355.56V356.716C450.725 362.471 448.879 367.793 445.746 372.121C440.968 378.731 433.191 383.032 424.41 383.032H79.0748C70.2938 383.032 62.5168 378.732 57.7388 372.121C54.6048 367.793 52.7598 362.471 52.7598 356.716V355.56H450.725Z" fill="#01305A"/>
<path d="M207.139 355.56V355.824C207.139 357.908 208.534 359.597 210.256 359.597H291.499C293.22 359.597 294.615 357.908 294.615 355.824V355.56H207.139Z" fill="#01305A"/>
<path opacity="0.2" d="M404.506 177.573V187.161H98.9775V177.573C98.9775 175.728 99.5525 174.02 100.54 172.618C102.102 170.378 104.699 168.913 107.638 168.913H395.85C398.79 168.913 401.387 170.378 402.945 172.618C403.931 174.02 404.506 175.727 404.506 177.573Z" fill="#01305A"/>
<path d="M330.698 180.928H168.658C168.243 180.928 167.903 180.588 167.903 180.173V176.834C167.903 176.419 168.242 176.08 168.657 176.08H330.698C331.113 176.08 331.452 176.42 331.452 176.835V180.174C331.453 180.589 331.113 180.928 330.698 180.928Z" fill="white"/>
<path d="M128.85 178.504V180.301C128.85 180.816 128.292 181.138 127.846 180.881L126.29 179.983L124.734 179.085C124.288 178.827 124.288 178.183 124.734 177.925L126.29 177.027L127.846 176.129C128.292 175.871 128.85 176.193 128.85 176.709V178.504Z" fill="#01305A"/>
<path d="M136.946 178.504V180.301C136.946 180.816 137.504 181.138 137.95 180.881L139.506 179.983L141.062 179.085C141.508 178.827 141.508 178.183 141.062 177.925L139.506 177.027L137.95 176.129C137.504 175.871 136.946 176.193 136.946 176.709V178.504Z" fill="#01305A"/>
<path opacity="0.2" d="M402.945 172.618H100.54C102.102 170.378 104.699 168.913 107.638 168.913H395.85C398.79 168.913 401.387 170.378 402.945 172.618Z" fill="#01305A"/>
<path opacity="0.1" d="M341.96 334.867H157.396C153.787 334.867 150.862 331.942 150.862 328.333C150.862 324.724 153.787 321.799 157.396 321.799H341.96C345.569 321.799 348.494 324.724 348.494 328.333C348.494 331.942 345.569 334.867 341.96 334.867Z" fill="#01305A"/>
<path d="M381.388 303.344C384.66 306.754 389.256 309.963 395.655 311.808C395.902 311.879 396.156 311.71 396.187 311.455C396.187 311.452 396.188 311.449 396.188 311.447C396.213 311.244 396.083 311.054 395.886 310.997C389.649 309.199 385.176 306.072 381.99 302.751C381.752 302.503 381.334 302.638 381.279 302.977C381.279 302.981 381.279 302.984 381.278 302.988C381.258 303.117 381.297 303.249 381.388 303.344Z" fill="#00528A"/>
<path d="M381.551 296.984V297.002C381.551 297.07 381.568 297.136 381.602 297.195C381.818 297.569 382.064 297.96 382.347 298.362C383.892 300.562 386.811 303.476 391.95 304.865C391.983 304.875 392.017 304.878 392.05 304.878C392.219 304.878 392.374 304.765 392.42 304.594C392.475 304.391 392.355 304.18 392.15 304.124C386.619 302.628 383.721 299.29 382.271 296.788C382.071 296.446 381.549 296.589 381.551 296.984Z" fill="#00528A"/>
<path d="M382.25 279.601C382.25 279.604 382.25 279.606 382.251 279.609C382.266 279.838 382.479 280.006 382.704 279.962C387.354 279.056 391.012 276.984 393.449 275.209C396.805 272.761 398.584 270.396 398.659 270.296C398.786 270.127 398.751 269.886 398.58 269.759C398.411 269.632 398.17 269.669 398.043 269.837C397.982 269.92 392.371 277.292 382.558 279.205C382.37 279.243 382.238 279.41 382.25 279.601Z" fill="#00528A"/>
<path d="M464.806 356.088C463.099 362.753 458.321 367.808 450.993 370.708C449.055 371.475 447.183 371.996 445.575 372.345C445.633 372.27 445.688 372.195 445.743 372.12C446.883 370.547 447.85 368.845 448.621 367.037C453.456 365.282 458.949 361.822 460.691 355.032C462.364 348.505 459.666 338.74 453.814 330.157C449.176 323.354 438.649 311.607 420.239 309.332C404.166 307.344 393.724 309.787 384.514 311.942C376.684 313.772 369.289 315.499 360.239 313.917C353.594 312.752 348.492 311.065 343.992 309.575C335.712 306.835 330.242 305.028 321.554 308.585C306.904 314.588 300.372 339.468 300.307 339.718L296.19 338.665C296.475 337.558 303.312 311.468 319.945 304.653C330.085 300.498 336.812 302.723 345.327 305.54C349.69 306.985 354.635 308.62 360.972 309.73C369.17 311.165 375.832 309.608 383.545 307.803C393.102 305.568 403.937 303.035 420.76 305.115C428.617 306.085 435.94 308.782 442.53 313.13C448.265 316.917 453.382 321.975 457.325 327.763C463.934 337.458 466.801 348.311 464.806 356.088Z" fill="#00528A"/>
<path d="M259.966 379.018L269.501 348.883C273.562 336.048 287.259 328.935 300.094 332.996C312.929 337.057 320.042 350.754 315.981 363.589L306.446 393.724C287.132 387.614 279.346 385.15 259.966 379.018Z" fill="#9F62F2"/>
<path d="M255.25 408.143C255.25 408.97 254.915 409.72 254.372 410.263C253.83 410.806 253.08 411.143 252.25 411.143H240.3V405.143H252.25C253.907 405.143 255.25 406.486 255.25 408.143Z" fill="#00528A"/>
<path d="M255.25 429.476C255.25 430.306 254.915 431.056 254.372 431.598C253.83 432.141 253.08 432.476 252.25 432.476H240.3V426.476H252.25C253.907 426.476 255.25 427.818 255.25 429.476Z" fill="#00528A"/>
<path d="M245.75 405.143H240.3V411.143H245.75V405.143Z" fill="#01305A"/>
<path d="M245.75 426.476H240.3V432.476H245.75V426.476Z" fill="#01305A"/>
<path d="M192.875 415.298L192.71 420.045C143.177 418.308 104.762 414.695 78.5368 409.308C56.0468 404.69 41.9618 398.753 35.4768 391.16C32.1468 387.26 30.7598 382.825 31.3548 377.977C32.3568 369.81 39.6148 363.782 52.9618 360.005C53.1618 361.608 53.5048 363.163 53.9818 364.66C45.0218 367.243 36.9348 371.515 36.0698 378.558C35.6368 382.075 36.6248 385.19 39.0898 388.075C44.7798 394.74 58.3748 400.317 79.4918 404.655C105.46 409.991 143.607 413.571 192.875 415.298Z" fill="#00528A"/>
<path d="M240.299 443.184H208.692C195.23 443.184 184.317 432.271 184.317 418.809C184.317 405.347 195.23 394.434 208.692 394.434H240.299C240.299 414.691 240.299 422.858 240.299 443.184Z" fill="#9F62F2"/>
<path d="M457.125 227.954V244.122C457.125 246.259 455.391 247.993 453.254 247.993H423.898L415.035 251.173C414.125 251.5 413.254 250.605 413.603 249.705L416.956 241.047V227.954C416.956 225.817 418.69 224.083 420.829 224.083H453.254C455.391 224.083 457.125 225.817 457.125 227.954Z" fill="#9F62F2"/>
<path d="M428.822 239.298C430.369 239.298 431.622 238.044 431.622 236.498C431.622 234.952 430.369 233.698 428.822 233.698C427.276 233.698 426.022 234.952 426.022 236.498C426.022 238.044 427.276 239.298 428.822 239.298Z" fill="#9F62F2"/>
<path d="M437.688 239.298C439.234 239.298 440.488 238.044 440.488 236.498C440.488 234.952 439.234 233.698 437.688 233.698C436.141 233.698 434.888 234.952 434.888 236.498C434.888 238.044 436.141 239.298 437.688 239.298Z" fill="#9F62F2"/>
<path d="M446.552 239.298C448.098 239.298 449.352 238.044 449.352 236.498C449.352 234.952 448.098 233.698 446.552 233.698C445.006 233.698 443.752 234.952 443.752 236.498C443.752 238.044 445.006 239.298 446.552 239.298Z" fill="#9F62F2"/>
<path d="M308.873 129.553C308.873 125.908 311.839 122.942 315.484 122.942C319.129 122.942 322.095 125.908 322.095 129.553C322.095 133.198 319.129 136.164 315.484 136.164C311.839 136.164 308.873 133.198 308.873 129.553ZM310.947 129.553C310.947 132.054 312.982 134.09 315.484 134.09C317.985 134.09 320.021 132.055 320.021 129.553C320.021 127.051 317.986 125.016 315.484 125.016C312.982 125.016 310.947 127.051 310.947 129.553Z" fill="#9F62F2"/>
<path d="M286.775 101.236C286.775 97.591 289.741 94.625 293.386 94.625C297.031 94.625 299.997 97.591 299.997 101.236C299.997 104.881 297.031 107.847 293.386 107.847C289.74 107.847 286.775 104.881 286.775 101.236ZM288.849 101.236C288.849 103.738 290.884 105.773 293.386 105.773C295.888 105.773 297.923 103.738 297.923 101.236C297.923 98.734 295.888 96.699 293.386 96.699C290.884 96.7 288.849 98.735 288.849 101.236Z" fill="#9F62F2"/>
<path d="M288.85 132.876C289.423 132.876 289.887 132.412 289.887 131.839V127.266C289.887 126.693 289.423 126.229 288.85 126.229C288.277 126.229 287.812 126.693 287.812 127.266V131.839C287.812 132.412 288.277 132.876 288.85 132.876Z" fill="#3B73AB"/>
<path d="M288.85 140.878C289.423 140.878 289.887 140.414 289.887 139.841V135.268C289.887 134.695 289.423 134.231 288.85 134.231C288.277 134.231 287.812 134.695 287.812 135.268V139.841C287.812 140.414 288.277 140.878 288.85 140.878Z" fill="#3B73AB"/>
<path d="M282.431 134.591H286.539C287.112 134.591 287.576 134.127 287.576 133.554C287.576 132.981 287.112 132.517 286.539 132.517H282.431C281.858 132.517 281.394 132.981 281.394 133.554C281.394 134.127 281.858 134.591 282.431 134.591Z" fill="#3B73AB"/>
<path d="M291.159 134.591H295.267C295.84 134.591 296.304 134.127 296.304 133.554C296.304 132.981 295.839 132.517 295.267 132.517H291.159C290.586 132.517 290.122 132.981 290.122 133.554C290.122 134.127 290.587 134.591 291.159 134.591Z" fill="#3B73AB"/>
<path d="M316.759 102.409C317.332 102.409 317.796 101.945 317.796 101.372V96.799C317.796 96.226 317.332 95.762 316.759 95.762C316.186 95.762 315.722 96.226 315.722 96.799V101.372C315.722 101.945 316.186 102.409 316.759 102.409Z" fill="#00528A"/>
<path d="M316.759 110.411C317.332 110.411 317.796 109.947 317.796 109.374V104.801C317.796 104.228 317.332 103.764 316.759 103.764C316.186 103.764 315.722 104.228 315.722 104.801V109.374C315.722 109.947 316.186 110.411 316.759 110.411Z" fill="#00528A"/>
<path d="M310.34 104.124H314.448C315.02 104.124 315.485 103.66 315.485 103.087C315.485 102.514 315.021 102.05 314.448 102.05H310.34C309.767 102.05 309.303 102.514 309.303 103.087C309.303 103.66 309.767 104.124 310.34 104.124Z" fill="#00528A"/>
<path d="M319.07 104.124H323.178C323.751 104.124 324.215 103.66 324.215 103.087C324.215 102.514 323.751 102.05 323.178 102.05H319.07C318.497 102.05 318.033 102.514 318.033 103.087C318.033 103.66 318.497 104.124 319.07 104.124Z" fill="#00528A"/>
<path d="M117.788 84.261C117.788 80.616 120.754 77.65 124.398 77.65C128.043 77.65 131.009 80.616 131.009 84.261C131.009 87.906 128.043 90.871 124.398 90.871C120.754 90.871 117.788 87.906 117.788 84.261ZM119.862 84.261C119.862 86.762 121.897 88.798 124.399 88.798C126.901 88.798 128.936 86.763 128.936 84.261C128.936 81.759 126.901 79.724 124.399 79.724C121.897 79.724 119.862 81.759 119.862 84.261Z" fill="#9F62F2"/>
<path d="M92.3672 96.7C92.3672 93.055 95.3322 90.089 98.9782 90.089C102.623 90.089 105.588 93.055 105.588 96.7C105.588 100.345 102.622 103.31 98.9782 103.31C95.3322 103.31 92.3672 100.345 92.3672 96.7ZM94.4412 96.7C94.4412 99.202 96.4762 101.237 98.9782 101.237C101.48 101.237 103.515 99.202 103.515 96.7C103.515 94.198 101.48 92.163 98.9782 92.163C96.4762 92.163 94.4412 94.198 94.4412 96.7Z" fill="#3B73AB"/>
<path d="M88.5634 114.494C89.1364 114.494 89.6004 114.03 89.6004 113.457V108.884C89.6004 108.311 89.1364 107.847 88.5634 107.847C87.9904 107.847 87.5264 108.311 87.5264 108.884V113.457C87.5264 114.03 87.9904 114.494 88.5634 114.494Z" fill="#9F62F2"/>
<path d="M88.5634 122.496C89.1364 122.496 89.6004 122.032 89.6004 121.459V116.886C89.6004 116.313 89.1364 115.849 88.5634 115.849C87.9904 115.849 87.5264 116.313 87.5264 116.886V121.459C87.5264 122.032 87.9904 122.496 88.5634 122.496Z" fill="#9F62F2"/>
<path d="M82.1444 116.209H86.2524C86.8254 116.209 87.2894 115.745 87.2894 115.172C87.2894 114.599 86.8254 114.135 86.2524 114.135H82.1444C81.5714 114.135 81.1074 114.599 81.1074 115.172C81.1074 115.744 81.5724 116.209 82.1444 116.209Z" fill="#9F62F2"/>
<path d="M90.8749 116.209H94.9829C95.5549 116.209 96.0199 115.745 96.0199 115.172C96.0199 114.599 95.5559 114.135 94.9829 114.135H90.8749C90.3019 114.135 89.8379 114.599 89.8379 115.172C89.8379 115.744 90.3019 116.209 90.8749 116.209Z" fill="#9F62F2"/>
<path d="M107.152 71.722C107.725 71.722 108.189 71.258 108.189 70.685V66.112C108.189 65.539 107.725 65.075 107.152 65.075C106.579 65.075 106.115 65.539 106.115 66.112V70.685C106.115 71.257 106.579 71.722 107.152 71.722Z" fill="#00528A"/>
<path d="M107.152 79.724C107.725 79.724 108.189 79.26 108.189 78.687V74.114C108.189 73.541 107.725 73.077 107.152 73.077C106.579 73.077 106.115 73.541 106.115 74.114V78.687C106.115 79.26 106.579 79.724 107.152 79.724Z" fill="#00528A"/>
<path d="M100.733 73.437H104.841C105.414 73.437 105.878 72.973 105.878 72.4C105.878 71.827 105.414 71.363 104.841 71.363H100.733C100.161 71.363 99.6963 71.827 99.6963 72.4C99.6963 72.972 100.161 73.437 100.733 73.437Z" fill="#00528A"/>
<path d="M109.464 73.437H113.572C114.145 73.437 114.609 72.973 114.609 72.4C114.609 71.827 114.145 71.363 113.572 71.363H109.464C108.891 71.363 108.427 71.827 108.427 72.4C108.427 72.972 108.891 73.437 109.464 73.437Z" fill="#00528A"/>
</g>
<defs>
<clipPath id="clip0_253_1296">
<rect width="500" height="500" fill="white"/>
</clipPath>
</defs>
</svg>
