<svg width="200" height="56" viewBox="0 0 200 56" fill="none" xmlns="http://www.w3.org/2000/svg">
<rect x="0.5" y="0.5" width="199" height="55" rx="3.5" stroke="#D2D2D2"/>
<g clip-path="url(#clip0_1_715)">
<path d="M56.0328 12.002H36.9632C33.3916 12.002 30.5 14.8936 30.5 18.4652V37.5388C30.5 41.1064 33.3916 43.998 36.9632 43.998H56.0368C59.6044 43.998 62.5 41.1064 62.5 37.5348V18.4652C62.496 14.8936 59.6044 12.002 56.0328 12.002Z" fill="url(#paint0_linear_1_715)"/>
<path d="M46.3619 19.3531L47.0099 18.2332C47.4098 17.5333 48.3017 17.2973 49.0016 17.6973C49.7016 18.0972 49.9375 18.9891 49.5376 19.689L43.2943 30.4957H47.8097C49.2736 30.4957 50.0934 32.2155 49.4576 33.4073H36.2192C35.4114 33.4073 34.7634 32.7594 34.7634 31.9515C34.7634 31.1437 35.4114 30.4957 36.2192 30.4957H39.9308L44.6822 22.2607L43.1984 19.685C42.7985 18.9851 43.0344 18.1012 43.7344 17.6933C44.4343 17.2933 45.3182 17.5293 45.7261 18.2292L46.3619 19.3531Z" fill="white"/>
<path d="M40.7466 34.9071L39.3468 37.3348C38.9469 38.0348 38.055 38.2707 37.3551 37.8708C36.6551 37.4708 36.4192 36.579 36.8191 35.879L37.859 34.0793C39.0348 33.7153 39.9907 33.9953 40.7466 34.9071Z" fill="white"/>
<path d="M52.8011 30.5037H56.5886C57.3965 30.5037 58.0444 31.1517 58.0444 31.9595C58.0444 32.7674 57.3965 33.4153 56.5886 33.4153H54.4849L55.9047 35.879C56.3046 36.579 56.0687 37.4628 55.3688 37.8708C54.6688 38.2707 53.7849 38.0348 53.377 37.3348C50.9853 33.1873 49.1895 30.0838 47.9977 28.016C46.7778 25.9123 47.6498 23.8005 48.5096 23.0847C49.4656 24.7245 50.8934 27.2002 52.8011 30.5037Z" fill="white"/>
</g>
<path d="M75.8026 35H72.9901L78.1108 20.4545H81.3636L86.4915 35H83.679L79.794 23.4375H79.6804L75.8026 35ZM75.8949 29.2969H83.5653V31.4134H75.8949V29.2969ZM88.2937 39.0909V24.0909H90.8221V25.8949H90.9712C91.1038 25.6297 91.2908 25.348 91.5323 25.0497C91.7738 24.7467 92.1005 24.4886 92.5124 24.2756C92.9244 24.0578 93.4499 23.9489 94.0891 23.9489C94.9319 23.9489 95.6919 24.1643 96.369 24.5952C97.0508 25.0213 97.5906 25.6534 97.9883 26.4915C98.3907 27.3248 98.592 28.3475 98.592 29.5597C98.592 30.7576 98.3955 31.7756 98.0025 32.6136C97.6095 33.4517 97.0745 34.0909 96.3974 34.5312C95.7203 34.9716 94.9532 35.1918 94.0962 35.1918C93.4712 35.1918 92.9528 35.0876 92.5408 34.8793C92.1289 34.6709 91.7975 34.42 91.5465 34.1264C91.3003 33.8281 91.1085 33.5464 90.9712 33.2812H90.8647V39.0909H88.2937ZM90.815 29.5455C90.815 30.2509 90.9144 30.8688 91.1133 31.3991C91.3169 31.9295 91.6081 32.3437 91.9869 32.642C92.3704 32.9356 92.8344 33.0824 93.3789 33.0824C93.9471 33.0824 94.4229 32.9309 94.8065 32.6278C95.19 32.3201 95.4788 31.901 95.6729 31.3707C95.8718 30.8357 95.9712 30.2273 95.9712 29.5455C95.9712 28.8684 95.8742 28.267 95.68 27.7415C95.4859 27.2159 95.1971 26.804 94.8136 26.5057C94.43 26.2074 93.9518 26.0582 93.3789 26.0582C92.8297 26.0582 92.3633 26.2027 91.9798 26.4915C91.5962 26.7803 91.305 27.1851 91.1062 27.706C90.9121 28.2268 90.815 28.84 90.815 29.5455ZM100.794 39.0909V24.0909H103.322V25.8949H103.471C103.604 25.6297 103.791 25.348 104.032 25.0497C104.274 24.7467 104.6 24.4886 105.012 24.2756C105.424 24.0578 105.95 23.9489 106.589 23.9489C107.432 23.9489 108.192 24.1643 108.869 24.5952C109.551 25.0213 110.091 25.6534 110.488 26.4915C110.891 27.3248 111.092 28.3475 111.092 29.5597C111.092 30.7576 110.895 31.7756 110.502 32.6136C110.109 33.4517 109.574 34.0909 108.897 34.5312C108.22 34.9716 107.453 35.1918 106.596 35.1918C105.971 35.1918 105.453 35.0876 105.041 34.8793C104.629 34.6709 104.297 34.42 104.047 34.1264C103.8 33.8281 103.609 33.5464 103.471 33.2812H103.365V39.0909H100.794ZM103.315 29.5455C103.315 30.2509 103.414 30.8688 103.613 31.3991C103.817 31.9295 104.108 32.3437 104.487 32.642C104.87 32.9356 105.334 33.0824 105.879 33.0824C106.447 33.0824 106.923 32.9309 107.306 32.6278C107.69 32.3201 107.979 31.901 108.173 31.3707C108.372 30.8357 108.471 30.2273 108.471 29.5455C108.471 28.8684 108.374 28.267 108.18 27.7415C107.986 27.2159 107.697 26.804 107.314 26.5057C106.93 26.2074 106.452 26.0582 105.879 26.0582C105.33 26.0582 104.863 26.2027 104.48 26.4915C104.096 26.7803 103.805 27.1851 103.606 27.706C103.412 28.2268 103.315 28.84 103.315 29.5455ZM126.273 24.4531C126.207 23.8329 125.927 23.3499 125.435 23.0043C124.947 22.6586 124.313 22.4858 123.532 22.4858C122.982 22.4858 122.511 22.5687 122.118 22.7344C121.725 22.9001 121.425 23.125 121.216 23.4091C121.008 23.6932 120.901 24.0175 120.897 24.3821C120.897 24.6851 120.965 24.9479 121.103 25.1705C121.245 25.393 121.436 25.5824 121.678 25.7386C121.919 25.8902 122.187 26.018 122.48 26.1222C122.774 26.2263 123.07 26.3139 123.368 26.3849L124.732 26.7259C125.281 26.8537 125.809 27.0265 126.316 27.2443C126.827 27.4621 127.284 27.7367 127.686 28.0682C128.094 28.3996 128.416 28.7997 128.652 29.2685C128.889 29.7372 129.007 30.2865 129.007 30.9162C129.007 31.7685 128.79 32.5189 128.354 33.1676C127.918 33.8116 127.289 34.3158 126.465 34.6804C125.646 35.0402 124.654 35.2202 123.489 35.2202C122.357 35.2202 121.375 35.045 120.542 34.6946C119.713 34.3442 119.064 33.8329 118.596 33.1605C118.132 32.4882 117.881 31.669 117.843 30.7031H120.435C120.473 31.2098 120.629 31.6312 120.904 31.9673C121.178 32.3035 121.536 32.5545 121.976 32.7202C122.421 32.8859 122.918 32.9688 123.468 32.9688C124.041 32.9688 124.542 32.8835 124.973 32.7131C125.409 32.5379 125.75 32.2964 125.996 31.9886C126.242 31.6761 126.368 31.3116 126.373 30.8949C126.368 30.5161 126.257 30.2036 126.039 29.9574C125.821 29.7064 125.516 29.4981 125.123 29.3324C124.734 29.1619 124.28 29.0104 123.759 28.8778L122.104 28.4517C120.906 28.1439 119.959 27.6776 119.263 27.0526C118.572 26.4228 118.226 25.5871 118.226 24.5455C118.226 23.6884 118.458 22.938 118.922 22.294C119.391 21.6501 120.028 21.1506 120.833 20.7955C121.638 20.4356 122.549 20.2557 123.567 20.2557C124.599 20.2557 125.504 20.4356 126.28 20.7955C127.061 21.1506 127.675 21.6454 128.12 22.2798C128.565 22.9096 128.794 23.634 128.809 24.4531H126.273ZM136.69 24.0909V26.0795H130.419V24.0909H136.69ZM131.967 21.4773H134.538V31.7188C134.538 32.0644 134.59 32.3295 134.695 32.5142C134.804 32.6941 134.946 32.8172 135.121 32.8835C135.296 32.9498 135.49 32.983 135.703 32.983C135.864 32.983 136.011 32.9711 136.143 32.9474C136.281 32.9238 136.385 32.9025 136.456 32.8835L136.889 34.8935C136.752 34.9408 136.555 34.9929 136.3 35.0497C136.049 35.1065 135.741 35.1397 135.376 35.1491C134.732 35.1681 134.152 35.071 133.636 34.858C133.12 34.6402 132.711 34.304 132.408 33.8494C132.109 33.3949 131.963 32.8267 131.967 32.1449V21.4773ZM143.482 35.2131C142.417 35.2131 141.493 34.9787 140.712 34.5099C139.931 34.0412 139.325 33.3854 138.894 32.5426C138.468 31.6998 138.255 30.715 138.255 29.5881C138.255 28.4612 138.468 27.474 138.894 26.6264C139.325 25.7789 139.931 25.1207 140.712 24.652C141.493 24.1832 142.417 23.9489 143.482 23.9489C144.547 23.9489 145.471 24.1832 146.252 24.652C147.033 25.1207 147.637 25.7789 148.063 26.6264C148.494 27.474 148.709 28.4612 148.709 29.5881C148.709 30.715 148.494 31.6998 148.063 32.5426C147.637 33.3854 147.033 34.0412 146.252 34.5099C145.471 34.9787 144.547 35.2131 143.482 35.2131ZM143.496 33.1534C144.074 33.1534 144.557 32.9948 144.945 32.6776C145.333 32.3556 145.622 31.9247 145.811 31.3849C146.006 30.8452 146.103 30.2438 146.103 29.581C146.103 28.9134 146.006 28.3097 145.811 27.7699C145.622 27.2254 145.333 26.7921 144.945 26.4702C144.557 26.1482 144.074 25.9872 143.496 25.9872C142.904 25.9872 142.412 26.1482 142.019 26.4702C141.631 26.7921 141.339 27.2254 141.145 27.7699C140.956 28.3097 140.861 28.9134 140.861 29.581C140.861 30.2438 140.956 30.8452 141.145 31.3849C141.339 31.9247 141.631 32.3556 142.019 32.6776C142.412 32.9948 142.904 33.1534 143.496 33.1534ZM150.891 35V24.0909H153.384V25.9091H153.498C153.697 25.2794 154.038 24.794 154.521 24.4531C155.008 24.1075 155.565 23.9347 156.19 23.9347C156.332 23.9347 156.49 23.9418 156.665 23.956C156.845 23.9654 156.995 23.982 157.113 24.0057V26.3707C157.004 26.3329 156.831 26.2997 156.594 26.2713C156.362 26.2382 156.138 26.2216 155.92 26.2216C155.451 26.2216 155.03 26.3234 154.656 26.527C154.286 26.7259 153.995 27.0028 153.782 27.358C153.569 27.7131 153.462 28.1226 153.462 28.5866V35H150.891ZM163.201 35.2131C162.108 35.2131 161.163 34.9858 160.368 34.5312C159.577 34.072 158.968 33.4233 158.542 32.5852C158.116 31.7424 157.903 30.7505 157.903 29.6094C157.903 28.4872 158.116 27.5024 158.542 26.6548C158.973 25.8026 159.574 25.1397 160.346 24.6662C161.118 24.188 162.025 23.9489 163.066 23.9489C163.739 23.9489 164.373 24.0578 164.97 24.2756C165.571 24.4886 166.101 24.8201 166.561 25.2699C167.025 25.7197 167.389 26.2926 167.654 26.9886C167.92 27.6799 168.052 28.5038 168.052 29.4602V30.2486H159.11V28.5156H165.588C165.583 28.0232 165.476 27.5852 165.268 27.2017C165.06 26.8134 164.769 26.508 164.395 26.2855C164.025 26.063 163.594 25.9517 163.102 25.9517C162.576 25.9517 162.115 26.0795 161.717 26.3352C161.319 26.5862 161.009 26.9176 160.787 27.3295C160.569 27.7367 160.458 28.1842 160.453 28.6719V30.1847C160.453 30.8191 160.569 31.3636 160.801 31.8182C161.033 32.268 161.357 32.6136 161.774 32.8551C162.19 33.0919 162.678 33.2102 163.237 33.2102C163.611 33.2102 163.949 33.1581 164.252 33.054C164.556 32.9451 164.818 32.7865 165.041 32.5781C165.263 32.3698 165.431 32.1117 165.545 31.804L167.946 32.0739C167.794 32.7083 167.505 33.2623 167.079 33.7358C166.658 34.2045 166.118 34.5691 165.46 34.8295C164.802 35.0852 164.049 35.2131 163.201 35.2131Z" fill="#001931"/>
<defs>
<linearGradient id="paint0_linear_1_715" x1="46.5" y1="12.002" x2="46.5" y2="43.998" gradientUnits="userSpaceOnUse">
<stop stop-color="#00BFFC"/>
<stop offset="1" stop-color="#0073F6"/>
</linearGradient>
<clipPath id="clip0_1_715">
<rect width="32" height="32" fill="white" transform="translate(30.5 12)"/>
</clipPath>
</defs>
</svg>
