<svg width="40" height="40" viewBox="0 0 40 40" fill="none" xmlns="http://www.w3.org/2000/svg">
<path d="M39 33.0625L39 28.5429C39 27.7598 38.3652 27.125 37.5821 27.125H35.6679C34.8848 27.125 34.25 27.7598 34.25 28.5429L34.25 33.0625C34.25 33.7183 33.7183 34.25 33.0625 34.25L6.9375 34.25C6.28166 34.25 5.75 33.7183 5.75 33.0625L5.75 28.5429C5.75 27.7598 5.11517 27.125 4.33207 27.125H2.41794C1.63483 27.125 1 27.7598 1 28.5429L1 33.0625C0.999999 36.3417 3.65831 39 6.9375 39L33.0625 39C36.3417 39 39 36.3417 39 33.0625Z" fill="url(#paint0_linear_3_1115)"/>
<path d="M11.8722 17.642L10.5169 18.9974C9.96313 19.5511 9.96313 20.4489 10.5169 21.0026L18.3195 28.8053C19.2465 29.7333 20.7503 29.7342 21.6783 28.8072C21.6789 28.8066 21.6795 28.8059 21.6802 28.8053L29.4829 21.0026C30.0366 20.4489 30.0366 19.5511 29.4829 18.9974L28.1275 17.642C27.5738 17.0883 26.676 17.0883 26.1222 17.642L22.3749 21.3894L22.3749 2.41794C22.3749 1.63483 21.74 1 20.9569 1L19.0428 1C18.2597 1 17.6249 1.63483 17.6249 2.41793L17.6249 21.3894L13.8775 17.642C13.3238 17.0883 12.426 17.0883 11.8722 17.642Z" fill="url(#paint1_linear_3_1115)"/>
<defs>
<linearGradient id="paint0_linear_3_1115" x1="4.64595" y1="33.0625" x2="36.0473" y2="33.0655" gradientUnits="userSpaceOnUse">
<stop offset="0.0001" stop-color="#54CF68"/>
<stop offset="1" stop-color="#00827A"/>
</linearGradient>
<linearGradient id="paint1_linear_3_1115" x1="12.001" y1="15.2509" x2="28.3599" y2="15.2513" gradientUnits="userSpaceOnUse">
<stop offset="0.0001" stop-color="#54CF68"/>
<stop offset="1" stop-color="#00827A"/>
</linearGradient>
</defs>
</svg>
