<svg width="200" height="56" viewBox="0 0 200 56" fill="none" xmlns="http://www.w3.org/2000/svg">
<rect x="0.5" y="0.5" width="199" height="55" rx="3.5" stroke="#D2D2D2"/>
<path d="M25.5371 12.7345L43.5478 23.1302L50.4817 27.136C51.1323 27.5274 51.1376 28.4626 50.4918 28.8591L50.4613 28.8796L25.5523 43.2606L25.5318 43.2707C25.2777 43.4131 24.9982 43.4283 24.7542 43.3571C24.3476 43.2351 24.0271 42.8641 24.0271 42.3812V13.619C24.0271 13.1361 24.3473 12.7651 24.7542 12.6431C25.0032 12.5716 25.2828 12.587 25.5371 12.7345Z" fill="#47BCFF"/>
<path d="M25.5371 12.7343L43.5478 23.13L39.0235 28L24.7542 12.6427C25.0032 12.5714 25.2828 12.5868 25.5371 12.7343Z" fill="#0BDF74"/>
<path d="M43.5477 23.13L50.4816 27.1358C51.1322 27.5272 51.1375 28.4625 50.4917 28.859L50.4612 28.8794L43.5477 32.8647L39.0234 28L43.5477 23.13Z" fill="#FDBA21"/>
<path d="M39.0235 28L43.5478 32.865L25.5522 43.2606L25.5318 43.2707C25.2777 43.4132 24.9981 43.4283 24.7542 43.3571L39.0235 28Z" fill="#FB434C"/>
<path d="M74.679 25.0994C74.5606 24.7159 74.3973 24.3726 74.1889 24.0696C73.9853 23.7618 73.7391 23.4991 73.4503 23.2812C73.1662 23.0634 72.8395 22.9001 72.4702 22.7912C72.1009 22.6776 71.6984 22.6207 71.2628 22.6207C70.4815 22.6207 69.7855 22.8172 69.1747 23.2102C68.5639 23.6032 68.0833 24.1809 67.733 24.9432C67.3873 25.7008 67.2145 26.6241 67.2145 27.7131C67.2145 28.8116 67.3873 29.742 67.733 30.5043C68.0786 31.2666 68.5592 31.8466 69.1747 32.2443C69.7902 32.6373 70.5052 32.8338 71.3196 32.8338C72.0582 32.8338 72.6974 32.6918 73.2372 32.4077C73.7817 32.1236 74.2008 31.7211 74.4943 31.2003C74.7879 30.6747 74.9347 30.0592 74.9347 29.3537L75.5312 29.446H71.5824V27.3864H77.4844V29.1335C77.4844 30.3788 77.2192 31.456 76.6889 32.3651C76.1586 33.2741 75.4295 33.9749 74.5014 34.4673C73.5734 34.955 72.508 35.1989 71.3054 35.1989C69.9654 35.1989 68.7888 34.8982 67.7756 34.2969C66.767 33.6908 65.9787 32.8314 65.4105 31.7188C64.8471 30.6013 64.5653 29.2756 64.5653 27.7415C64.5653 26.5672 64.7311 25.5185 65.0625 24.5952C65.3987 23.6719 65.8674 22.8883 66.4688 22.2443C67.0701 21.5956 67.7756 21.1032 68.5852 20.767C69.3949 20.4261 70.2756 20.2557 71.2273 20.2557C72.0322 20.2557 72.7827 20.3741 73.4787 20.6108C74.1747 20.8428 74.7926 21.1742 75.3324 21.6051C75.8769 22.036 76.3243 22.5473 76.6747 23.1392C77.0251 23.7311 77.2547 24.3845 77.3636 25.0994H74.679ZM84.6772 35.2131C83.6119 35.2131 82.6886 34.9787 81.9073 34.5099C81.1261 34.0412 80.52 33.3854 80.0891 32.5426C79.663 31.6998 79.4499 30.715 79.4499 29.5881C79.4499 28.4612 79.663 27.474 80.0891 26.6264C80.52 25.7789 81.1261 25.1207 81.9073 24.652C82.6886 24.1832 83.6119 23.9489 84.6772 23.9489C85.7425 23.9489 86.6658 24.1832 87.4471 24.652C88.2283 25.1207 88.832 25.7789 89.2582 26.6264C89.689 27.474 89.9045 28.4612 89.9045 29.5881C89.9045 30.715 89.689 31.6998 89.2582 32.5426C88.832 33.3854 88.2283 34.0412 87.4471 34.5099C86.6658 34.9787 85.7425 35.2131 84.6772 35.2131ZM84.6914 33.1534C85.2691 33.1534 85.752 32.9948 86.1403 32.6776C86.5285 32.3556 86.8174 31.9247 87.0067 31.3849C87.2009 30.8452 87.2979 30.2438 87.2979 29.581C87.2979 28.9134 87.2009 28.3097 87.0067 27.7699C86.8174 27.2254 86.5285 26.7921 86.1403 26.4702C85.752 26.1482 85.2691 25.9872 84.6914 25.9872C84.0996 25.9872 83.6071 26.1482 83.2141 26.4702C82.8259 26.7921 82.5347 27.2254 82.3406 27.7699C82.1512 28.3097 82.0565 28.9134 82.0565 29.581C82.0565 30.2438 82.1512 30.8452 82.3406 31.3849C82.5347 31.9247 82.8259 32.3556 83.2141 32.6776C83.6071 32.9948 84.0996 33.1534 84.6914 33.1534ZM96.8452 35.2131C95.7798 35.2131 94.8565 34.9787 94.0753 34.5099C93.294 34.0412 92.688 33.3854 92.2571 32.5426C91.831 31.6998 91.6179 30.715 91.6179 29.5881C91.6179 28.4612 91.831 27.474 92.2571 26.6264C92.688 25.7789 93.294 25.1207 94.0753 24.652C94.8565 24.1832 95.7798 23.9489 96.8452 23.9489C97.9105 23.9489 98.8338 24.1832 99.6151 24.652C100.396 25.1207 101 25.7789 101.426 26.6264C101.857 27.474 102.072 28.4612 102.072 29.5881C102.072 30.715 101.857 31.6998 101.426 32.5426C101 33.3854 100.396 34.0412 99.6151 34.5099C98.8338 34.9787 97.9105 35.2131 96.8452 35.2131ZM96.8594 33.1534C97.437 33.1534 97.92 32.9948 98.3082 32.6776C98.6965 32.3556 98.9853 31.9247 99.1747 31.3849C99.3688 30.8452 99.4659 30.2438 99.4659 29.581C99.4659 28.9134 99.3688 28.3097 99.1747 27.7699C98.9853 27.2254 98.6965 26.7921 98.3082 26.4702C97.92 26.1482 97.437 25.9872 96.8594 25.9872C96.2675 25.9872 95.7751 26.1482 95.3821 26.4702C94.9938 26.7921 94.7027 27.2254 94.5085 27.7699C94.3191 28.3097 94.2244 28.9134 94.2244 29.581C94.2244 30.2438 94.3191 30.8452 94.5085 31.3849C94.7027 31.9247 94.9938 32.3556 95.3821 32.6776C95.7751 32.9948 96.2675 33.1534 96.8594 33.1534ZM108.999 39.3182C108.076 39.3182 107.283 39.1927 106.62 38.9418C105.957 38.6955 105.424 38.3641 105.022 37.9474C104.619 37.5308 104.34 37.0691 104.184 36.5625L106.499 36.0014C106.603 36.2145 106.755 36.4252 106.953 36.6335C107.152 36.8466 107.42 37.0218 107.756 37.1591C108.097 37.3011 108.525 37.3722 109.042 37.3722C109.771 37.3722 110.374 37.1946 110.853 36.8395C111.331 36.4891 111.57 35.9115 111.57 35.1065V33.0398H111.442C111.31 33.3049 111.115 33.5772 110.86 33.8565C110.609 34.1359 110.275 34.3703 109.858 34.5597C109.446 34.7491 108.928 34.8438 108.303 34.8438C107.465 34.8438 106.705 34.6473 106.023 34.2543C105.346 33.8565 104.806 33.2647 104.404 32.4787C104.006 31.688 103.807 30.6984 103.807 29.5099C103.807 28.312 104.006 27.3011 104.404 26.4773C104.806 25.6487 105.348 25.0213 106.03 24.5952C106.712 24.1643 107.472 23.9489 108.31 23.9489C108.949 23.9489 109.475 24.0578 109.887 24.2756C110.303 24.4886 110.635 24.7467 110.881 25.0497C111.127 25.348 111.314 25.6297 111.442 25.8949H111.584V24.0909H114.12V35.1776C114.12 36.1103 113.897 36.8821 113.452 37.4929C113.007 38.1037 112.399 38.5606 111.627 38.8636C110.855 39.1667 109.979 39.3182 108.999 39.3182ZM109.02 32.8267C109.565 32.8267 110.029 32.6941 110.412 32.429C110.796 32.1638 111.087 31.7827 111.286 31.2855C111.485 30.7884 111.584 30.1918 111.584 29.4957C111.584 28.8092 111.485 28.2079 111.286 27.6918C111.092 27.1757 110.803 26.7756 110.419 26.4915C110.041 26.2027 109.574 26.0582 109.02 26.0582C108.447 26.0582 107.969 26.2074 107.586 26.5057C107.202 26.804 106.913 27.2135 106.719 27.7344C106.525 28.2505 106.428 28.8376 106.428 29.4957C106.428 30.1634 106.525 30.7481 106.719 31.25C106.918 31.7472 107.209 32.1354 107.593 32.4148C107.981 32.6894 108.457 32.8267 109.02 32.8267ZM119.326 20.4545V35H116.755V20.4545H119.326ZM126.799 35.2131C125.705 35.2131 124.761 34.9858 123.965 34.5312C123.174 34.072 122.566 33.4233 122.14 32.5852C121.714 31.7424 121.501 30.7505 121.501 29.6094C121.501 28.4872 121.714 27.5024 122.14 26.6548C122.571 25.8026 123.172 25.1397 123.944 24.6662C124.716 24.188 125.622 23.9489 126.664 23.9489C127.336 23.9489 127.971 24.0578 128.567 24.2756C129.169 24.4886 129.699 24.8201 130.158 25.2699C130.622 25.7197 130.987 26.2926 131.252 26.9886C131.517 27.6799 131.65 28.5038 131.65 29.4602V30.2486H122.708V28.5156H129.185C129.181 28.0232 129.074 27.5852 128.866 27.2017C128.657 26.8134 128.366 26.508 127.992 26.2855C127.623 26.063 127.192 25.9517 126.7 25.9517C126.174 25.9517 125.712 26.0795 125.315 26.3352C124.917 26.5862 124.607 26.9176 124.384 27.3295C124.166 27.7367 124.055 28.1842 124.05 28.6719V30.1847C124.05 30.8191 124.166 31.3636 124.398 31.8182C124.63 32.268 124.955 32.6136 125.371 32.8551C125.788 33.0919 126.276 33.2102 126.835 33.2102C127.209 33.2102 127.547 33.1581 127.85 33.054C128.153 32.9451 128.416 32.7865 128.638 32.5781C128.861 32.3698 129.029 32.1117 129.143 31.804L131.543 32.0739C131.392 32.7083 131.103 33.2623 130.677 33.7358C130.255 34.2045 129.716 34.5691 129.058 34.8295C128.399 35.0852 127.647 35.2131 126.799 35.2131ZM138.9 35V20.4545H144.354C145.471 20.4545 146.409 20.6629 147.167 21.0795C147.929 21.4962 148.504 22.0691 148.892 22.7983C149.285 23.5227 149.482 24.3466 149.482 25.2699C149.482 26.2027 149.285 27.0312 148.892 27.7557C148.499 28.4801 147.919 29.0507 147.152 29.4673C146.385 29.8793 145.441 30.0852 144.319 30.0852H140.703V27.919H143.963C144.617 27.919 145.152 27.8054 145.569 27.5781C145.985 27.3509 146.293 27.0384 146.492 26.6406C146.695 26.2429 146.797 25.786 146.797 25.2699C146.797 24.7538 146.695 24.2992 146.492 23.9062C146.293 23.5133 145.983 23.2079 145.561 22.9901C145.145 22.7675 144.607 22.6562 143.949 22.6562H141.534V35H138.9ZM154.228 20.4545V35H151.657V20.4545H154.228ZM160.011 35.2202C159.32 35.2202 158.697 35.0971 158.143 34.8509C157.594 34.5999 157.158 34.2306 156.836 33.7429C156.519 33.2552 156.36 32.6539 156.36 31.9389C156.36 31.3234 156.474 30.8144 156.701 30.4119C156.929 30.0095 157.239 29.6875 157.632 29.446C158.025 29.2045 158.467 29.0223 158.96 28.8991C159.457 28.7713 159.971 28.679 160.501 28.6222C161.14 28.5559 161.659 28.4967 162.056 28.4446C162.454 28.3878 162.743 28.3026 162.923 28.1889C163.108 28.0705 163.2 27.8883 163.2 27.642V27.5994C163.2 27.0644 163.041 26.6501 162.724 26.3565C162.407 26.063 161.95 25.9162 161.353 25.9162C160.724 25.9162 160.224 26.0535 159.855 26.3281C159.49 26.6027 159.244 26.9271 159.116 27.3011L156.716 26.9602C156.905 26.2973 157.217 25.7434 157.653 25.2983C158.089 24.8485 158.621 24.5123 159.251 24.2898C159.881 24.0625 160.577 23.9489 161.339 23.9489C161.865 23.9489 162.388 24.0104 162.909 24.1335C163.43 24.2566 163.905 24.4602 164.336 24.7443C164.767 25.0237 165.113 25.4048 165.373 25.8878C165.638 26.3707 165.771 26.9744 165.771 27.6989V35H163.299V33.5014H163.214C163.058 33.8045 162.838 34.0885 162.554 34.3537C162.274 34.6141 161.922 34.8248 161.495 34.9858C161.074 35.142 160.579 35.2202 160.011 35.2202ZM160.679 33.331C161.195 33.331 161.642 33.2292 162.021 33.0256C162.4 32.8172 162.691 32.5426 162.895 32.2017C163.103 31.8608 163.207 31.4891 163.207 31.0866V29.8011C163.127 29.8674 162.989 29.929 162.795 29.9858C162.606 30.0426 162.393 30.0923 162.156 30.1349C161.919 30.1776 161.685 30.2154 161.453 30.2486C161.221 30.2817 161.02 30.3101 160.849 30.3338C160.466 30.3859 160.122 30.4711 159.819 30.5895C159.516 30.7079 159.277 30.8736 159.102 31.0866C158.927 31.295 158.839 31.5649 158.839 31.8963C158.839 32.3698 159.012 32.7273 159.358 32.9688C159.703 33.2102 160.144 33.331 160.679 33.331ZM169.564 39.0909C169.213 39.0909 168.889 39.0625 168.591 39.0057C168.297 38.9536 168.063 38.892 167.887 38.821L168.484 36.8182C168.858 36.9271 169.192 36.9792 169.485 36.9744C169.779 36.9697 170.037 36.8774 170.26 36.6974C170.487 36.5223 170.679 36.2287 170.835 35.8168L171.055 35.2273L167.099 24.0909H169.826L172.341 32.3295H172.454L174.975 24.0909H177.71L173.342 36.321C173.138 36.8987 172.868 37.3935 172.532 37.8054C172.196 38.2221 171.784 38.5393 171.297 38.7571C170.814 38.9796 170.236 39.0909 169.564 39.0909Z" fill="#001931"/>
</svg>
