<svg width="40" height="40" viewBox="0 0 40 40" fill="none" xmlns="http://www.w3.org/2000/svg">
<path fill-rule="evenodd" clip-rule="evenodd" d="M27.2125 15.0745C26.547 14.591 26.2239 13.7741 26.3785 12.9661L27.0135 9.64829L24.5728 7.35915H4.03176C2.12957 7.35915 0.573242 8.91548 0.573242 10.8177V29.4794C0.573242 31.3816 2.12965 32.9379 4.03176 32.9379H7.5623V39.4351L12.9171 32.9379H27.5053C29.407 32.9379 30.9638 31.3813 30.9638 29.4794V14.3968L29.4755 15.2162C28.7571 15.6117 27.8759 15.5566 27.2125 15.0745ZM10.1347 27.5642C10.1347 27.9736 9.79988 28.3085 9.39051 28.3085H7.20027C6.7909 28.3085 6.45605 27.9736 6.45605 27.5642V18.5112C6.45605 18.1018 6.7909 17.7669 7.20027 17.7669H9.39051C9.79988 17.7669 10.1347 18.1018 10.1347 18.5112V27.5642ZM23.3372 27.3665C22.0186 28.6852 16.8332 28.5936 14.9969 28.2592C13.769 28.0356 13.1518 27.6505 11.7286 27.5642L11.7132 18.3613C15.9562 17.7241 16.804 15.3988 16.4394 11.0707C16.4144 10.7738 16.6307 10.5102 16.9269 10.477C20.5305 10.072 19.7844 15.8763 19.5618 17.6046H21.1329C24.7082 17.5144 24.8416 18.2828 25.055 19.7149C25.2501 21.024 24.3192 26.3432 23.3373 27.3665H23.3372ZM39.2512 6.19774L36.1598 9.09712L36.9566 13.2598C36.9978 13.4751 36.9161 13.6817 36.7388 13.8106C36.5615 13.9394 36.3397 13.9532 36.1477 13.8476L32.4349 11.8035L28.7221 13.8476C28.53 13.9533 28.3082 13.9394 28.131 13.8106C27.9537 13.6817 27.8719 13.4751 27.9132 13.2598L28.7099 9.09719L25.6185 6.19774C25.4586 6.04782 25.4033 5.83266 25.4711 5.62422C25.5388 5.41579 25.71 5.27423 25.9275 5.24688L30.1328 4.71829L31.935 0.882272C32.0282 0.683912 32.2157 0.56485 32.4349 0.56485C32.654 0.56485 32.8416 0.683912 32.9348 0.882272L34.7371 4.71829L38.9423 5.24688C39.1597 5.27423 39.331 5.41579 39.3987 5.62422C39.4664 5.83266 39.4111 6.04782 39.2513 6.19774H39.2512Z" fill="url(#paint0_linear_3_1119)"/>
<defs>
<linearGradient id="paint0_linear_3_1119" x1="2.78085" y1="2.77339" x2="39.4373" y2="28.4662" gradientUnits="userSpaceOnUse">
<stop stop-color="#632EE3"/>
<stop offset="1" stop-color="#9F62F2"/>
</linearGradient>
</defs>
</svg>
